<svg xmlns="http://www.w3.org/2000/svg" width="64" height="64"><path d="M32 11.8c-1.852 0-3.45.95-4.402 2.5L9.55 44.45c-.95 1.6-1 3.55-.051 5.148.898 1.601 2.55 2.601 4.402 2.601h36.149c1.847 0 3.55-.949 4.449-2.601a5.13 5.13 0 00-.05-5.149L36.401 14.301c-.953-1.551-2.55-2.5-4.402-2.5zm0 3c.75 0 1.398.348 1.8 1.048L51.899 46c.403.648.403 1.45.051 2.148-.398.653-1.05 1.051-1.851 1.051h-36.2c-.75 0-1.449-.398-1.847-1.05-.403-.649-.352-1.5.047-2.149l18.101-30.152C30.602 15.199 31.25 14.8 32 14.8zm0 9.848c-.852 0-1.5.653-1.5 1.5v10.5c0 .852.648 1.5 1.5 1.5s1.5-.648 1.5-1.5v-10.5c0-.847-.648-1.5-1.5-1.5zm0 15.602a1.5 1.5 0 100 3 1.5 1.5 0 000-3zm0 0" fill="#f15c6e"/></svg>